<svg width="250" height="200" viewBox="0 0 250 200" fill="none" xmlns="http://www.w3.org/2000/svg">
<path d="M123.033 45.4409H121.999V16.6585C121.999 12.2404 120.272 8.00325 117.197 4.87917C114.123 1.7551 109.953 5.50905e-06 105.605 1.05725e-10H45.5962C43.4434 -7.79349e-06 41.3117 0.43087 39.3227 1.26803C37.3338 2.10519 35.5266 3.33224 34.0043 4.87912C32.482 6.426 31.2745 8.26241 30.4506 10.2835C29.6268 12.3046 29.2027 14.4708 29.2027 16.6584V174.561C29.2027 176.749 29.6267 178.915 30.4506 180.936C31.2744 182.957 32.482 184.794 34.0042 186.341C35.5265 187.887 37.3337 189.114 39.3226 189.952C41.3116 190.789 43.4433 191.22 45.5961 191.22H105.605C107.758 191.22 109.89 190.789 111.879 189.952C113.868 189.115 115.675 187.887 117.197 186.341C118.72 184.794 119.927 182.957 120.751 180.936C121.575 178.915 121.999 176.749 121.999 174.561V65.9288H123.033V45.4409Z" fill="#3F3D56"/>
<path d="M106.143 4.72797H98.3103C98.6705 5.62541 98.808 6.5991 98.7107 7.56326C98.6133 8.52743 98.2842 9.45248 97.7522 10.2569C97.2201 11.0614 96.5016 11.7205 95.6598 12.1763C94.8181 12.6321 93.8789 12.8705 92.9251 12.8706H58.5466C57.5928 12.8705 56.6536 12.6321 55.8119 12.1763C54.9701 11.7205 54.2516 11.0614 53.7195 10.2569C53.1875 9.45248 52.8583 8.52743 52.761 7.56327C52.6637 6.5991 52.8012 5.62541 53.1614 4.72797H45.8452C42.5983 4.72796 39.4844 6.03863 37.1885 8.37165C34.8926 10.7047 33.6028 13.8689 33.6028 17.1683V174.839C33.6028 176.473 33.9194 178.091 34.5347 179.6C35.1499 181.109 36.0517 182.481 37.1885 183.636C38.3253 184.791 39.6749 185.708 41.1602 186.333C42.6455 186.958 44.2375 187.28 45.8452 187.28H106.143C109.39 187.28 112.504 185.969 114.8 183.636C117.096 181.303 118.386 178.139 118.386 174.839V17.1683C118.386 15.5346 118.069 13.917 117.454 12.4076C116.839 10.8983 115.937 9.52686 114.8 8.37167C113.663 7.21647 112.314 6.30012 110.828 5.67493C109.343 5.04974 107.751 4.72797 106.143 4.72797H106.143ZM104.827 77.8726C104.825 78.7264 104.49 79.5446 103.896 80.1483C103.302 80.7521 102.497 81.0924 101.656 81.0949H86.3297C85.4894 81.0924 84.6843 80.7521 84.0901 80.1483C83.496 79.5446 83.1611 78.7264 83.1586 77.8726V77.067C83.1611 76.2132 83.496 75.395 84.0901 74.7912C84.6843 74.1875 85.4894 73.8472 86.3297 73.8447H101.656C102.497 73.8472 103.302 74.1875 103.896 74.7912C104.49 75.395 104.825 76.2132 104.827 77.067V77.8726ZM106.545 63.6407C106.543 64.4945 106.208 65.3127 105.614 65.9165C105.019 66.5202 104.214 66.8605 103.374 66.863H48.4093C47.569 66.8605 46.7639 66.5202 46.1697 65.9165C45.5756 65.3127 45.2407 64.4945 45.2382 63.6407V62.8351C45.2407 61.9813 45.5756 61.1631 46.1697 60.5594C46.7639 59.9556 47.569 59.6153 48.4093 59.6128H103.374C104.214 59.6153 105.019 59.9556 105.614 60.5594C106.208 61.1631 106.543 61.9813 106.545 62.8351V63.6407ZM106.545 49.4088C106.543 50.2626 106.208 51.0808 105.614 51.6846C105.019 52.2883 104.214 52.6286 103.374 52.6311H48.4093C47.569 52.6286 46.7639 52.2883 46.1697 51.6846C45.5756 51.0808 45.2407 50.2626 45.2382 49.4088V48.6032C45.2407 47.7494 45.5756 46.9312 46.1697 46.3275C46.7639 45.7237 47.569 45.3834 48.4093 45.3809H103.374C104.214 45.3834 105.019 45.7237 105.614 46.3275C106.208 46.9312 106.543 47.7494 106.545 48.6032V49.4088ZM106.545 35.1769C106.543 36.0308 106.208 36.8489 105.614 37.4527C105.019 38.0564 104.214 38.3967 103.374 38.3992H48.4093C47.569 38.3967 46.7639 38.0564 46.1697 37.4527C45.5756 36.8489 45.2407 36.0308 45.2382 35.1769V34.3713C45.2407 33.5175 45.5756 32.6993 46.1697 32.0956C46.7639 31.4918 47.569 31.1515 48.4093 31.149H103.374C104.214 31.1515 105.019 31.4918 105.614 32.0956C106.208 32.6993 106.543 33.5175 106.545 34.3713V35.1769Z" fill="white"/>
<path d="M49.5985 65.2519C50.6201 65.2519 51.4483 64.4103 51.4483 63.3722C51.4483 62.334 50.6201 61.4925 49.5985 61.4925C48.5769 61.4925 47.7487 62.334 47.7487 63.3722C47.7487 64.4103 48.5769 65.2519 49.5985 65.2519Z" fill="white"/>
<path d="M55.6763 65.2519C56.6979 65.2519 57.5261 64.4103 57.5261 63.3722C57.5261 62.334 56.6979 61.4925 55.6763 61.4925C54.6547 61.4925 53.8265 62.334 53.8265 63.3722C53.8265 64.4103 54.6547 65.2519 55.6763 65.2519Z" fill="white"/>
<path d="M61.7541 65.2519C62.7757 65.2519 63.6038 64.4103 63.6038 63.3722C63.6038 62.334 62.7757 61.4925 61.7541 61.4925C60.7325 61.4925 59.9043 62.334 59.9043 63.3722C59.9043 64.4103 60.7325 65.2519 61.7541 65.2519Z" fill="white"/>
<path d="M67.8319 65.2519C68.8535 65.2519 69.6817 64.4103 69.6817 63.3722C69.6817 62.334 68.8535 61.4925 67.8319 61.4925C66.8103 61.4925 65.9821 62.334 65.9821 63.3722C65.9821 64.4103 66.8103 65.2519 67.8319 65.2519Z" fill="white"/>
<path d="M87.651 79.4837C88.6726 79.4837 89.5007 78.6422 89.5007 77.6041C89.5007 76.5659 88.6726 75.7244 87.651 75.7244C86.6294 75.7244 85.8012 76.5659 85.8012 77.6041C85.8012 78.6422 86.6294 79.4837 87.651 79.4837Z" fill="white"/>
<path d="M93.7288 79.4837C94.7504 79.4837 95.5786 78.6422 95.5786 77.6041C95.5786 76.5659 94.7504 75.7244 93.7288 75.7244C92.7072 75.7244 91.879 76.5659 91.879 77.6041C91.879 78.6422 92.7072 79.4837 93.7288 79.4837Z" fill="white"/>
<path d="M99.8066 79.4837C100.828 79.4837 101.656 78.6422 101.656 77.6041C101.656 76.5659 100.828 75.7244 99.8066 75.7244C98.785 75.7244 97.9568 76.5659 97.9568 77.6041C97.9568 78.6422 98.785 79.4837 99.8066 79.4837Z" fill="white"/>
<path d="M106.97 101.959H44.2845C42.8118 101.959 41.3994 102.553 40.358 103.612C39.3167 104.67 38.7317 106.105 38.7317 107.601V138.637C38.7317 140.134 39.3167 141.569 40.358 142.627C41.3994 143.685 42.8118 144.28 44.2845 144.28H106.97C108.443 144.28 109.855 143.685 110.897 142.627C111.938 141.569 112.523 140.134 112.523 138.637V107.601C112.523 106.105 111.938 104.67 110.897 103.612C109.855 102.553 108.443 101.959 106.97 101.959H106.97ZM42.7336 105.808C42.8574 105.785 45.7927 105.278 48.2232 106.764C50.6537 108.25 51.5875 111.123 51.626 111.245L51.7242 111.554L51.4088 111.611C50.9589 111.683 50.5039 111.717 50.0485 111.713C48.6038 111.741 47.1781 111.376 45.919 110.655C43.4886 109.169 42.5549 106.296 42.5164 106.175L42.4181 105.865L42.7336 105.808ZM56.341 134.623H45.1605C44.345 134.623 43.563 134.293 42.9864 133.707C42.4098 133.122 42.0858 132.327 42.0858 131.498C42.0858 130.67 42.4098 129.875 42.9864 129.289C43.563 128.703 44.345 128.374 45.1605 128.374H56.341C57.1565 128.374 57.9385 128.703 58.5151 129.289C59.0917 129.875 59.4157 130.67 59.4157 131.498C59.4157 132.327 59.0917 133.122 58.5151 133.707C57.9385 134.293 57.1565 134.623 56.341 134.623V134.623ZM107.212 134.055C107.21 134.958 106.856 135.823 106.227 136.462C105.599 137.1 104.747 137.46 103.858 137.463H95.4729C94.5841 137.46 93.7325 137.1 93.104 136.462C92.4755 135.823 92.1213 134.958 92.1187 134.055V128.942C92.1213 128.039 92.4755 127.173 93.104 126.535C93.7325 125.896 94.5841 125.536 95.4729 125.534H103.858C104.747 125.536 105.599 125.896 106.227 126.535C106.856 127.173 107.21 128.039 107.212 128.942L107.212 134.055Z" fill="#3D7AFD"/>
<path d="M98.1765 133.001H94.805C94.5642 133.001 94.3333 133.098 94.1631 133.271C93.9929 133.444 93.8972 133.679 93.8972 133.923C93.8972 134.168 93.9929 134.403 94.1631 134.576C94.3333 134.749 94.5642 134.846 94.805 134.846H98.1765C98.4172 134.846 98.6481 134.749 98.8184 134.576C98.9886 134.403 99.0842 134.168 99.0842 133.923C99.0842 133.679 98.9886 133.444 98.8184 133.271C98.6481 133.098 98.4172 133.001 98.1765 133.001V133.001Z" fill="#3F3D56"/>
<path d="M104.401 133.001H101.029C100.789 133.001 100.558 133.098 100.388 133.271C100.217 133.444 100.122 133.679 100.122 133.923C100.122 134.168 100.217 134.403 100.388 134.576C100.558 134.749 100.789 134.846 101.029 134.846H104.401C104.642 134.846 104.873 134.749 105.043 134.576C105.213 134.403 105.309 134.168 105.309 133.923C105.309 133.679 105.213 133.444 105.043 133.271C104.873 133.098 104.642 133.001 104.401 133.001V133.001Z" fill="#3F3D56"/>
<path d="M98.176 130.397H94.8045C94.5637 130.397 94.3328 130.494 94.1626 130.667C93.9924 130.84 93.8968 131.075 93.8968 131.32C93.8968 131.564 93.9924 131.799 94.1626 131.972C94.3328 132.145 94.5637 132.242 94.8045 132.242H98.176C98.4168 132.242 98.6476 132.145 98.8179 131.972C98.9881 131.799 99.0837 131.564 99.0837 131.32C99.0837 131.075 98.9881 130.84 98.8179 130.667C98.6476 130.494 98.4168 130.397 98.176 130.397V130.397Z" fill="#3F3D56"/>
<path d="M104.4 130.397H101.029C100.788 130.397 100.557 130.494 100.387 130.667C100.217 130.84 100.121 131.075 100.121 131.32C100.121 131.564 100.217 131.799 100.387 131.972C100.557 132.145 100.788 132.242 101.029 132.242H104.4C104.641 132.242 104.872 132.145 105.042 131.972C105.212 131.799 105.308 131.564 105.308 131.32C105.308 131.075 105.212 130.84 105.042 130.667C104.872 130.494 104.641 130.397 104.4 130.397H104.4Z" fill="#3F3D56"/>
<path d="M98.176 127.846H94.8045C94.5637 127.846 94.3328 127.943 94.1626 128.116C93.9924 128.289 93.8968 128.524 93.8968 128.768C93.8968 129.013 93.9924 129.248 94.1626 129.421C94.3328 129.594 94.5637 129.691 94.8045 129.691H98.176C98.4168 129.691 98.6476 129.594 98.8179 129.421C98.9881 129.248 99.0837 129.013 99.0837 128.768C99.0837 128.524 98.9881 128.289 98.8179 128.116C98.6476 127.943 98.4168 127.846 98.176 127.846V127.846Z" fill="#3F3D56"/>
<path d="M104.4 127.846H101.029C100.788 127.846 100.557 127.943 100.387 128.116C100.217 128.289 100.121 128.524 100.121 128.768C100.121 129.013 100.217 129.248 100.387 129.421C100.557 129.594 100.788 129.691 101.029 129.691H104.4C104.641 129.691 104.872 129.594 105.042 129.421C105.212 129.248 105.308 129.013 105.308 128.768C105.308 128.524 105.212 128.289 105.042 128.116C104.872 127.943 104.641 127.846 104.4 127.846H104.4Z" fill="#3F3D56"/>
<path d="M150.387 113.65H142.211V121.958H150.387V113.65Z" fill="#E6E6E6"/>
<path d="M132.575 118.694H146.007V132.344H132.575V118.694ZM145.423 119.288H133.159V131.751H145.423V119.288Z" fill="#3F3D56"/>
<path d="M8.1764 45.1039H0V53.4125H8.1764V45.1039Z" fill="#E6E6E6"/>
<path d="M17.8129 48.368H4.38025V34.7181H17.8129V48.368ZM4.96428 47.7745H17.2289V35.3116H4.96428V47.7745Z" fill="#3F3D56"/>
<path d="M190.708 196.266H187.128L185.425 182.234H190.709L190.708 196.266Z" fill="#FFB8B8"/>
<path d="M184.571 195.227H191.475V199.644H180.223C180.223 198.472 180.681 197.349 181.497 196.52C182.312 195.692 183.418 195.227 184.571 195.227V195.227Z" fill="#2F2E41"/>
<path d="M208.521 196.266H204.941L203.238 182.234H208.521L208.521 196.266Z" fill="#FFB8B8"/>
<path d="M202.384 195.227H209.288V199.644H198.036C198.036 198.472 198.494 197.349 199.31 196.52C200.125 195.692 201.231 195.227 202.384 195.227V195.227Z" fill="#2F2E41"/>
<path d="M172.749 146.084C172.491 145.698 172.32 145.26 172.247 144.8C172.174 144.34 172.202 143.869 172.327 143.421C172.453 142.973 172.674 142.558 172.974 142.206C173.274 141.854 173.647 141.573 174.066 141.383L186.236 107.298L192.224 110.619L178.329 143.192C178.596 143.928 178.588 144.738 178.307 145.469C178.026 146.199 177.491 146.8 176.803 147.156C176.115 147.513 175.323 147.601 174.575 147.403C173.828 147.205 173.178 146.736 172.749 146.084V146.084Z" fill="#FFB8B8"/>
<path d="M206.692 152.489C206.294 152.257 205.951 151.939 205.687 151.558C205.423 151.177 205.245 150.742 205.164 150.283C205.084 149.824 205.103 149.353 205.221 148.903C205.339 148.453 205.553 148.034 205.847 147.677L202.077 111.621L208.892 111.937L210.459 147.403C211.017 147.945 211.36 148.677 211.422 149.459C211.485 150.241 211.263 151.019 210.799 151.646C210.334 152.273 209.66 152.705 208.903 152.86C208.146 153.016 207.36 152.883 206.692 152.489V152.489Z" fill="#FFB8B8"/>
<path d="M195.82 100.984C199.781 100.984 202.992 97.7214 202.992 93.6963C202.992 89.6711 199.781 86.4081 195.82 86.4081C191.859 86.4081 188.648 89.6711 188.648 93.6963C188.648 97.7214 191.859 100.984 195.82 100.984Z" fill="#FFB8B8"/>
<path d="M206.646 144.289H185.024L185.05 144.118C185.088 143.862 188.903 118.468 186.09 110.16C185.807 109.344 185.832 108.45 186.159 107.651C186.487 106.852 187.093 106.205 187.862 105.833H187.862C191.884 103.908 199.603 101.539 206.119 107.29C207.078 108.15 207.826 109.225 208.306 110.43C208.785 111.635 208.982 112.936 208.881 114.232L206.646 144.289Z" fill="#CCCCCC"/>
<path d="M189.177 122.221L179.442 120.214L184.005 109.226C184.278 108.162 184.955 107.251 185.888 106.693C186.821 106.136 187.934 105.977 188.982 106.252C190.03 106.527 190.928 107.213 191.478 108.16C192.029 109.107 192.188 110.237 191.92 111.302L189.177 122.221Z" fill="#CCCCCC"/>
<path d="M201.644 125.947L201.059 112.315C200.615 109.752 202.059 107.329 204.279 106.933C206.5 106.539 208.669 108.316 209.115 110.898L211.314 123.636L201.644 125.947Z" fill="#CCCCCC"/>
<path d="M205.927 142.656C209.406 156.121 209.786 173.241 208.847 191.915L204.175 191.321L195.706 155.713L191.034 191.915L185.778 191.618C184.208 172.025 182.679 155.204 185.194 144.14L205.927 142.656Z" fill="#2F2E41"/>
<path d="M200.546 99.3287C199.208 100.777 196.723 99.9995 196.549 98.021C196.535 97.8673 196.536 97.7127 196.552 97.5593C196.642 96.6829 197.14 95.8872 197.021 94.9618C196.994 94.7315 196.909 94.512 196.775 94.3242C195.709 92.8733 193.206 94.9731 192.2 93.6597C191.583 92.8543 192.308 91.5863 191.835 90.6862C191.21 89.4982 189.359 90.0843 188.198 89.4337C186.907 88.7098 186.984 86.6962 187.834 85.4714C188.871 83.9778 190.689 83.1808 192.484 83.0659C194.279 82.9511 196.062 83.4442 197.738 84.1079C199.642 84.862 201.53 85.9042 202.702 87.6057C204.127 89.6749 204.265 92.4567 203.552 94.8762C203.118 96.348 201.639 98.146 200.546 99.3287Z" fill="#2F2E41"/>
<path d="M249.708 200H138.45C138.373 200 138.299 199.969 138.244 199.913C138.189 199.857 138.158 199.782 138.158 199.703C138.158 199.625 138.189 199.549 138.244 199.493C138.299 199.438 138.373 199.407 138.45 199.407H249.708C249.785 199.407 249.86 199.438 249.914 199.493C249.969 199.549 250 199.625 250 199.703C250 199.782 249.969 199.857 249.914 199.913C249.86 199.969 249.785 200 249.708 200Z" fill="#3F3D56"/>
</svg>
