<svg width="40" height="40" viewBox="0 0 40 40" fill="none" xmlns="http://www.w3.org/2000/svg">
<g clip-path="url(#clip0)">
<path d="M21.2842 39.9564L32.132 35.6641C36.4106 32.1539 39.1407 26.8256 39.1407 20.8594C39.1407 10.2884 30.571 1.71875 20 1.71875C9.42905 1.71875 0.859406 10.2884 0.859406 20.8594C0.859406 31.4307 9.42905 40 20 40C20.4319 40 20.8597 39.9844 21.2842 39.9564Z" fill="#1F0954"/>
<path d="M31.2299 24.9179C31.3824 23.0707 31.1011 21.2198 30.2832 19.5563C28.1705 15.2585 28.6551 14.9466 28.5895 10.6812C28.5895 9.80957 27.883 9.10339 27.0117 9.10339C26.1401 9.10339 25.434 9.80957 25.434 10.6812C25.434 11.2439 25.434 26.6055 25.434 26.5454C25.434 26.7914 25.4077 27.0316 25.3592 27.2632V29.5343C25.3592 31.4481 23.8022 33.0054 21.8884 33.0054C20.6174 33.0054 16.2341 33.0054 13.2516 33.0054C14.5782 34.8505 16.3934 36.2955 18.5001 37.1704C18.5132 37.1756 18.5263 37.1811 18.5394 37.1866C19.8068 37.7222 20.7745 38.732 21.2842 39.9564C25.3885 39.6844 29.1394 38.1198 32.132 35.6644L30.9561 31.3446C30.7883 30.7272 30.7291 30.0854 30.7812 29.4479L31.2299 24.9179Z" fill="#F9CFA9"/>
<path d="M7.3914 9.15862L6.91074 8.71337C6.17008 8.02673 5.00217 8.07128 4.31583 8.81225C3.62949 9.55291 3.67405 10.7208 4.41471 11.4072L7.3914 14.1653V9.15862Z" fill="#F9CFA9"/>
<path d="M23.1735 0H9.68019C8.37099 0 7.30592 1.06537 7.30592 2.37457V30.8105C7.30592 32.1198 8.37099 33.1851 9.68019 33.1851H23.1735C24.4828 33.1851 25.5481 32.1198 25.5481 30.8105V2.37457C25.5481 1.06537 24.4828 0 23.1735 0V0Z" fill="#3D4EC6"/>
<path d="M11.8778 1.76086C11.7493 1.56982 11.6742 1.34003 11.6742 1.09253C11.6742 0.606689 11.9635 0.189209 12.3786 0H9.68021C8.36887 0 7.30563 1.06323 7.30563 2.37457V30.8105C7.30563 32.1219 8.36887 33.1848 9.68021 33.1848H12.5489V3.84186C12.5489 3.09509 12.2947 2.38068 11.8778 1.76086Z" fill="#2B3894"/>
<path d="M8.68045 14.9981V30.8105C8.68045 31.3629 9.12814 31.8106 9.68021 31.8106H23.1736C23.7256 31.8106 24.1733 31.3629 24.1733 30.8105C24.1733 30.2679 24.1733 22.3468 24.1733 14.9981H8.68045Z" fill="#E6F7FE"/>
<path d="M8.68045 14.9981V30.8105C8.68045 31.3629 9.12814 31.8106 9.68021 31.8106H12.0453V14.9981H8.68045Z" fill="#D5F1FE"/>
<path d="M14.1153 19.768C14.1153 20.6332 13.414 21.3345 12.5489 21.3345C11.6837 21.3345 10.9824 20.6332 10.9824 19.768C10.9824 18.9029 11.6837 18.2013 12.5489 18.2013C13.414 18.2013 14.1153 18.9029 14.1153 19.768Z" fill="#3D4EC6"/>
<path d="M14.1153 25.5767C14.1153 26.4419 13.414 27.1435 12.5489 27.1435C11.6837 27.1435 10.9824 26.4419 10.9824 25.5767C10.9824 24.7115 11.6837 24.0103 12.5489 24.0103C13.414 24.0103 14.1153 24.7115 14.1153 25.5767Z" fill="#3D4EC6"/>
<path d="M12.3719 18.2119C11.59 18.3001 10.9824 18.9627 10.9824 19.768C10.9824 20.6332 11.6837 21.3345 12.5489 21.3345C13.0884 21.3345 13.5639 21.0617 13.8456 20.6466C12.4948 20.7989 11.6349 19.2975 12.3719 18.2119Z" fill="#2B3894"/>
<path d="M12.3719 24.0209C11.59 24.1088 10.9824 24.7717 10.9824 25.5767C10.9824 26.4422 11.6837 27.1435 12.5489 27.1435C13.0884 27.1435 13.5639 26.8707 13.8456 26.4556C12.5031 26.6067 11.63 25.1135 12.3719 24.0209Z" fill="#2B3894"/>
<path d="M18.9505 19.1168H16.7264C16.4029 19.1168 16.1405 18.8544 16.1405 18.5309C16.1405 18.2071 16.4029 17.9449 16.7264 17.9449H18.9505C19.274 17.9449 19.5365 18.2071 19.5365 18.5309C19.5365 18.8544 19.274 19.1168 18.9505 19.1168Z" fill="#11DFEF"/>
<path d="M21.1747 21.5912H16.7264C16.4026 21.5912 16.1405 21.3287 16.1405 21.0052C16.1405 20.6815 16.4026 20.4193 16.7264 20.4193H21.1747C21.4982 20.4193 21.7606 20.6815 21.7606 21.0052C21.7606 21.3287 21.4982 21.5912 21.1747 21.5912Z" fill="#11DFEF"/>
<path d="M18.9505 24.9255H16.7264C16.4029 24.9255 16.1405 24.6634 16.1405 24.3396C16.1405 24.0158 16.4029 23.7537 16.7264 23.7537H18.9505C19.274 23.7537 19.5365 24.0158 19.5365 24.3396C19.5365 24.6634 19.274 24.9255 18.9505 24.9255Z" fill="#11DFEF"/>
<path d="M21.1747 27.3999H16.7264C16.4026 27.3999 16.1405 27.1378 16.1405 26.814C16.1405 26.4905 16.4026 26.228 16.7264 26.228H21.1747C21.4982 26.228 21.7606 26.4905 21.7606 26.814C21.7606 27.1378 21.4982 27.3999 21.1747 27.3999Z" fill="#11DFEF"/>
<path d="M23.1656 1.37479H21.1603C20.9711 1.37479 20.8179 1.52798 20.8179 1.71689C20.8179 2.17068 20.4468 2.54178 19.9933 2.54178H12.8452C12.3914 2.54178 12.0203 2.17068 12.0203 1.71689C12.0203 1.52798 11.8671 1.37479 11.6779 1.37479H9.67256C9.12019 1.37479 8.6725 1.82248 8.6725 2.37454V15.1544H24.1657V2.37454C24.1657 1.82248 23.718 1.37479 23.1656 1.37479Z" fill="#1F0954"/>
<path d="M12.0453 1.91464C12.0294 1.85117 12.0203 1.78525 12.0203 1.71719C12.0203 1.52798 11.8671 1.37479 11.6779 1.37479H9.67256C9.12019 1.37479 8.6725 1.82248 8.6725 2.37454V15.1544H12.0453V1.91464Z" fill="#1F0954"/>
<path d="M23.1656 1.37479H21.1603C20.9711 1.37479 20.8179 1.52798 20.8179 1.71689C20.8179 2.17068 20.4468 2.54178 19.9933 2.54178H16.0507L24.1657 12.7139V2.37454C24.1657 1.82248 23.718 1.37479 23.1656 1.37479Z" fill="#1F0954"/>
<path d="M13.8999 6.0318H11.1978C10.8743 6.0318 10.6119 5.76965 10.6119 5.44586C10.6119 5.12207 10.8743 4.85992 11.1978 4.85992H13.8999C14.2233 4.85992 14.4858 5.12207 14.4858 5.44586C14.4858 5.76935 14.2233 6.0318 13.8999 6.0318Z" fill="#1F0954"/>
<path d="M10.0638 18.8431C9.45986 19.4946 8.44179 19.5337 7.78994 18.9297L5.09493 16.4325C4.44308 15.8285 4.40432 14.8105 5.00826 14.1586C5.6122 13.5068 6.63027 13.468 7.28213 14.072L9.97713 16.5692C10.6287 17.1731 10.6677 18.1912 10.0638 18.8431Z" fill="#F9CFA9"/>
<path d="M9.97712 16.5692L8.69508 15.3814C8.86384 15.9927 8.72377 16.6739 8.26143 17.1728C7.79878 17.6721 7.13014 17.8634 6.50819 17.742L7.78993 18.9297C8.44179 19.5337 9.45954 19.4946 10.0638 18.843C10.6677 18.1912 10.6287 17.1731 9.97712 16.5692Z" fill="#FBBC8D"/>
<path d="M10.0638 23.2315C9.45986 23.8834 8.44179 23.9221 7.78994 23.3182L5.09493 20.8209C4.44308 20.217 4.40432 19.1989 5.00826 18.5474C5.6122 17.8955 6.63027 17.8567 7.28213 18.4607L9.97713 20.9579C10.6287 21.5619 10.6677 22.5796 10.0638 23.2315Z" fill="#F9CFA9"/>
<path d="M10.0638 27.6202C9.45986 28.2721 8.44179 28.3108 7.78994 27.7069L5.09493 25.2096C4.44308 24.6057 4.40432 23.5876 5.00826 22.9358C5.6122 22.2839 6.63027 22.2451 7.28213 22.8491L9.97713 25.3463C10.6287 25.9503 10.6677 26.9683 10.0638 27.6202Z" fill="#F9CFA9"/>
<path d="M30.9561 31.3442C30.8728 31.0372 30.8163 30.7244 30.7867 30.4089C27.8052 35.3039 22.0166 37.5771 16.5793 36.1636C17.1857 36.5533 17.8281 36.8908 18.5001 37.17C18.5132 37.1755 18.5263 37.181 18.5394 37.1865C19.8068 37.7218 20.7745 38.7316 21.2842 39.9563C25.3885 39.6844 29.1394 38.1194 32.132 35.664L30.9561 31.3442Z" fill="#FBBC8D"/>
<path d="M9.97712 20.9579L8.69508 19.7702C8.86384 20.3811 8.72377 21.0623 8.26143 21.5616C7.79878 22.0608 7.13014 22.2522 6.50819 22.1307L7.78993 23.3181C8.44179 23.9221 9.45985 23.8833 10.0638 23.2315C10.6677 22.5796 10.6287 21.5619 9.97712 20.9579Z" fill="#FBBC8D"/>
<path d="M9.97712 25.3463L8.69508 24.1586C8.86384 24.7698 8.72377 25.451 8.26143 25.95C7.79878 26.4492 7.13014 26.6409 6.50819 26.5191L7.78993 27.7069C8.44179 28.3108 9.45985 28.272 10.0638 27.6202C10.6677 26.9683 10.6287 25.9503 9.97712 25.3463Z" fill="#FBBC8D"/>
<path d="M11.015 9.84659V11.6H9.98959V6.62344H11.931C12.3047 6.62344 12.6328 6.6918 12.9154 6.82852C13.2002 6.96524 13.4189 7.16006 13.5716 7.41299C13.7243 7.66365 13.8006 7.94962 13.8006 8.2709C13.8006 8.75853 13.6331 9.14363 13.2982 9.42618C12.9655 9.70645 12.5041 9.84659 11.9139 9.84659H11.015ZM11.015 9.01602H11.931C12.2022 9.01602 12.4084 8.95222 12.5496 8.82462C12.6932 8.69701 12.765 8.51472 12.765 8.27774C12.765 8.03393 12.6932 7.83682 12.5496 7.68643C12.4061 7.53604 12.2078 7.45857 11.9549 7.45401H11.015V9.01602ZM14.1748 11.6V6.62344H15.7061C16.1436 6.62344 16.5343 6.72256 16.8784 6.92081C17.2248 7.11677 17.4948 7.39704 17.6885 7.76163C17.8822 8.12393 17.979 8.53637 17.979 8.99893V9.22794C17.979 9.6905 17.8833 10.1018 17.6919 10.4618C17.5028 10.8218 17.235 11.101 16.8887 11.2992C16.5423 11.4975 16.1515 11.5977 15.7163 11.6H14.1748ZM15.2002 7.45401V10.7763H15.6958C16.0968 10.7763 16.4033 10.6453 16.6152 10.3832C16.8272 10.1212 16.9354 9.74633 16.9399 9.2587V8.99551C16.9399 8.48965 16.8351 8.10684 16.6255 7.84708C16.4159 7.58503 16.1094 7.45401 15.7061 7.45401H15.2002ZM20.1579 10.3661L21.2858 6.62344H22.4274L20.6945 11.6H19.6247L17.8986 6.62344H19.0368L20.1579 10.3661Z" fill="white"/>
</g>
<defs>
<clipPath id="clip0">
<rect width="40" height="40" fill="white"/>
</clipPath>
</defs>
</svg>
